<?xml version="1.0" encoding="utf-8"?>
<!-- Svg Vector Icons : http://www.onlinewebfonts.com/icon -->
<!DOCTYPE svg PUBLIC "-//W3C//DTD SVG 1.1//EN" "http://www.w3.org/Graphics/SVG/1.1/DTD/svg11.dtd">
<svg version="1.1" xmlns="http://www.w3.org/2000/svg" xmlns:xlink="http://www.w3.org/1999/xlink" x="0px" y="0px" viewBox="0 0 1000 1000" enable-background="new 0 0 1000 1000" xml:space="preserve">
<metadata> Svg Vector Icons : http://www.onlinewebfonts.com/icon </metadata>
<g><path d="M500,10c-142.5,0-256.5,114-256.5,256.5c0,25.9,20.7,46.6,46.6,46.6c25.9,0,46.6-20.7,46.6-46.6c0-1.3,0-2.7,0.1-4c-0.1-2.5-0.2-5-0.2-7.4c0-90.2,73.1-163.3,163.3-163.3c90.2,0,163.3,73.1,163.3,163.3c0,49.9-22.3,94.5-57.6,124.5c-15.5,15-32.6,27.4-48.8,37.3c-93.3,57-101.2,137.3-98.6,178.8v116.6c0,25.9,15.7,45.7,41.6,45.7s41.5-19.8,41.5-45.7V592.9c0-2.6-2.6-57,67.4-98.4c95.9-57,147.7-139.9,147.7-230.6C756.5,121.4,642.5,10,500,10z" fill="#4CAF50"/><path d="M500,867.5c-33.7,0-61.3,27.6-61.3,61.3c0,33.7,27.6,61.3,61.3,61.3c33.7,0,61.3-27.6,61.3-61.3C561.3,895.1,533.7,867.5,500,867.5z"
fill="#4CAF50"/></g>
</svg>